<svg width="37" height="33" viewBox="0 0 37 33" fill="none" xmlns="http://www.w3.org/2000/svg">
<g clip-path="url(#clip0)">
<path fill-rule="evenodd" clip-rule="evenodd" d="M17.1766 6.97836C15.7363 8.41865 15.7363 10.7538 17.1766 12.1941L17.8837 11.487C16.834 10.4372 16.834 8.73523 17.8837 7.68547L21.7151 3.85409C22.7649 2.80433 24.4669 2.80433 25.5166 3.8541C26.5664 4.90386 26.5664 6.60586 25.5166 7.65562L23.6009 9.57131L21.5159 11.6563C21.3207 11.8516 21.3207 12.1682 21.5159 12.3634C21.7112 12.5587 22.0278 12.5587 22.2231 12.3634L24.3081 10.2784L26.2237 8.36273C27.664 6.92244 27.664 4.58727 26.2237 3.14699C24.7835 1.7067 22.4483 1.7067 21.008 3.14699L17.1766 6.97836ZM19.8239 13.9981C21.2641 12.5578 21.2641 10.2227 19.8239 8.78239L19.1168 9.4895C20.1665 10.5393 20.1665 12.2413 19.1167 13.291L15.2854 17.1224C14.2356 18.1722 12.5336 18.1722 11.4839 17.1224C10.4341 16.0726 10.4341 14.3706 11.4839 13.3209L13.3995 11.4052L15.4845 9.32018C15.6798 9.12492 15.6798 8.80834 15.4845 8.61307C15.2893 8.41781 14.9727 8.41781 14.7774 8.61307L12.6924 10.6981L10.7767 12.6138C9.33646 14.054 9.33646 16.3892 10.7767 17.8295C12.217 19.2698 14.5522 19.2698 15.9925 17.8295L19.8239 13.9981Z" fill="white"/>
<g clip-path="url(#clip1)">
<rect width="7" height="22" rx="3.5" transform="matrix(4.37114e-08 1 1 -4.37114e-08 0.5 25)" fill="#D9CF25"/>
<rect x="36.5" y="25" width="7" height="12" rx="3.5" transform="rotate(90 36.5 25)" fill="#C7CFD6" fill-opacity="0.18"/>
</g>
</g>
<defs>
<clipPath id="clip0">
<rect width="36" height="32.0234" fill="white" transform="translate(0.5 0.488281)"/>
</clipPath>
<clipPath id="clip1">
<rect width="8.02339" height="36" fill="white" transform="matrix(4.37114e-08 1 1 -4.37114e-08 0.5 24.4883)"/>
</clipPath>
</defs>
</svg>
