<svg width="37" height="33" viewBox="0 0 37 33" fill="none" xmlns="http://www.w3.org/2000/svg">
<g clip-path="url(#clip0)">
<g clip-path="url(#clip1)">
<path fill-rule="evenodd" clip-rule="evenodd" d="M15.9944 3.96778C15.9944 2.58396 17.1162 1.46216 18.5 1.46216C19.8839 1.46216 21.0057 2.58396 21.0057 3.96778C21.0057 5.35159 19.8839 6.4734 18.5 6.4734C17.1162 6.4734 15.9944 5.35159 15.9944 3.96778ZM18.5 0.462158C16.5639 0.462158 14.9944 2.03168 14.9944 3.96778C14.9944 5.426 15.8848 6.67627 17.1515 7.20463V9.20979H16.7313C15.9865 9.20979 15.3827 9.81357 15.3827 10.5584C15.3827 10.8801 15.4953 11.1754 15.6833 11.4072C15.4953 11.639 15.3827 11.9344 15.3827 12.256C15.3827 12.4308 15.4159 12.5978 15.4764 12.7511C14.9407 12.9408 14.481 13.2929 14.1219 13.6785C13.2586 14.6053 12.029 15.1838 10.6636 15.1838C9.8383 15.1838 8.94849 15.7956 8.94849 16.768V18.0409C8.94849 19.4071 10.056 20.5147 11.4223 20.5147H25.6068C26.957 20.5147 28.0516 19.4201 28.0516 18.0698V16.8336C28.0516 15.8612 27.1618 15.2495 26.3365 15.2495C24.9527 15.2495 23.7084 14.6553 22.8436 13.7066C22.4921 13.3211 22.0419 12.9674 21.5163 12.7694C21.5815 12.6112 21.6175 12.4378 21.6175 12.256C21.6175 11.9344 21.5048 11.639 21.3169 11.4072C21.5048 11.1754 21.6175 10.8801 21.6175 10.5584C21.6175 9.81357 21.0137 9.20979 20.2689 9.20979H19.8487V7.20459C21.1154 6.67621 22.0057 5.42596 22.0057 3.96778C22.0057 2.03168 20.4361 0.462158 18.5 0.462158ZM18.8487 9.20979H18.1515V7.64104H18.8487V9.20979ZM16.7313 10.2098L17.1515 10.2098H17.6515H19.3487H19.8487L20.2689 10.2098C20.4614 10.2098 20.6175 10.3659 20.6175 10.5584C20.6175 10.7509 20.4614 10.907 20.2689 10.907H16.7313C16.5387 10.907 16.3827 10.7509 16.3827 10.5584C16.3827 10.3659 16.5387 10.2098 16.7313 10.2098ZM16.7163 12.6043H20.2838C20.4694 12.5965 20.6175 12.4436 20.6175 12.256C20.6175 12.0635 20.4614 11.9074 20.2689 11.9074H16.7313C16.5387 11.9074 16.3827 12.0635 16.3827 12.256C16.3827 12.4436 16.5307 12.5965 16.7163 12.6043ZM16.7313 13.6046L16.7171 13.6046L16.7018 13.6043H16.3142C15.7965 13.6043 15.2848 13.8972 14.8536 14.3601C13.8091 15.4815 12.318 16.1838 10.6636 16.1838C10.2377 16.1838 9.94849 16.4892 9.94849 16.768V18.0409C9.94849 18.8548 10.6083 19.5147 11.4223 19.5147H25.6068C26.4047 19.5147 27.0516 18.8678 27.0516 18.0698V16.8336C27.0516 16.5548 26.7623 16.2495 26.3365 16.2495C24.6598 16.2495 23.1509 15.5281 22.1046 14.3803C21.6718 13.9056 21.1537 13.6043 20.6285 13.6043H20.2983L20.2846 13.6045L20.2689 13.6046H16.7313ZM22.3409 16.4738C21.6649 16.4738 21.1168 17.0219 21.1168 17.6979C21.1168 18.374 21.6649 18.922 22.3409 18.922H22.7483C23.4243 18.922 23.9724 18.374 23.9724 17.6979C23.9724 17.0219 23.4243 16.4738 22.7483 16.4738H22.3409ZM22.1168 17.6979C22.1168 17.5742 22.2172 17.4738 22.3409 17.4738H22.7483C22.872 17.4738 22.9724 17.5742 22.9724 17.6979C22.9724 17.8217 22.872 17.922 22.7483 17.922H22.3409C22.2172 17.922 22.1168 17.8217 22.1168 17.6979Z" fill="white"/>
</g>
<g clip-path="url(#clip2)">
<rect x="36.5" y="25" width="7" height="22" rx="3.5" transform="rotate(90 36.5 25)" fill="#383A3D"/>
<rect width="7" height="12" rx="3.5" transform="matrix(-4.37114e-08 1 1 4.37114e-08 0.5 25)" fill="#D98425"/>
</g>
</g>
<defs>
<clipPath id="clip0">
<rect width="36" height="32.0234" fill="white" transform="translate(0.5 0.488281)"/>
</clipPath>
<clipPath id="clip1">
<rect width="20" height="20" fill="white" transform="translate(8.5 0.488281)"/>
</clipPath>
<clipPath id="clip2">
<rect width="8.02339" height="36" fill="white" transform="translate(36.5 24.4883) rotate(90)"/>
</clipPath>
</defs>
</svg>
