<svg width="37" height="33" viewBox="0 0 37 33" fill="none" xmlns="http://www.w3.org/2000/svg">
<g clip-path="url(#clip0)">
<g clip-path="url(#clip1)">
<path fill-rule="evenodd" clip-rule="evenodd" d="M22.9008 2.18806C22.9566 2.37957 22.99 2.58056 22.9982 2.78806L24.9001 2.78806C25.0658 2.78806 25.2001 2.65375 25.2001 2.48806C25.2001 2.32238 25.0658 2.18806 24.9001 2.18806H22.9008ZM22.0001 2.88806C22.0001 2.05963 21.3286 1.38806 20.5001 1.38806L16.5001 1.38806C15.6776 1.38806 15.0097 2.05014 15.0002 2.87045L15.0001 2.88806C15.0001 2.90101 15.0003 2.91391 15.0006 2.92678C15.0212 3.73731 15.6847 4.38806 16.5001 4.38806L17.7001 4.38806H19.3001L20.5001 4.38806C21.3088 4.38806 21.9681 3.74811 21.999 2.94699C21.9998 2.92744 22.0001 2.9078 22.0001 2.88806ZM22.8332 3.78806C22.4719 4.72407 21.5636 5.38806 20.5001 5.38806H19.8001V8.08806C19.8001 8.19132 19.7881 8.29176 19.7654 8.38806H20.8605C22.0522 8.38806 23.0783 9.22921 23.312 10.3978L23.8372 13.024C24.237 12.1754 25.1 11.5881 26.1001 11.5881C27.4809 11.5881 28.6001 12.7073 28.6001 14.0881V18.0881C28.6001 19.4688 27.4809 20.5881 26.1001 20.5881C24.7194 20.5881 23.6001 19.4688 23.6001 18.0881V16.4654C23.1459 17.0239 22.453 17.3881 21.6605 17.3881H15.3398C14.5473 17.3881 13.8544 17.0239 13.4001 16.4654V18.0881C13.4001 19.4688 12.2809 20.5881 10.9001 20.5881C9.51943 20.5881 8.40015 19.4688 8.40015 18.0881V14.0881C8.40015 12.7073 9.51943 11.5881 10.9001 11.5881C11.9003 11.5881 12.7633 12.1754 13.1631 13.024L13.6883 10.3978C13.922 9.22921 14.9481 8.38806 16.1398 8.38806H17.2349C17.2122 8.29176 17.2001 8.19132 17.2001 8.08806V5.38806H16.5001C15.4367 5.38806 14.5284 4.72407 14.167 3.78806H12.1001C11.3822 3.78806 10.8001 3.20603 10.8001 2.48806C10.8001 1.77009 11.3822 1.18806 12.1001 1.18806H14.6671C15.1237 0.695991 15.7759 0.388062 16.5001 0.388062H20.5001C21.2243 0.388062 21.8766 0.695991 22.3332 1.18806H24.9001C25.6181 1.18806 26.2001 1.77009 26.2001 2.48806C26.2001 3.20603 25.6181 3.78806 24.9001 3.78806L22.8332 3.78806ZM14.0995 2.18806H12.1001C11.9345 2.18806 11.8001 2.32238 11.8001 2.48806C11.8001 2.65375 11.9345 2.78806 12.1001 2.78806H14.0021C14.0103 2.58056 14.0437 2.37957 14.0995 2.18806ZM18.2001 5.38806H18.8001V8.08806C18.8001 8.25375 18.6658 8.38806 18.5001 8.38806C18.3345 8.38806 18.2001 8.25375 18.2001 8.08806V5.38806ZM18.5001 9.38806H16.1398C15.4247 9.38806 14.8091 9.89275 14.6689 10.5939L13.8689 14.5939C13.6832 15.5221 14.3932 16.3881 15.3398 16.3881H21.6605C22.6071 16.3881 23.317 15.5221 23.1314 14.5939L22.3314 10.5939C22.1912 9.89275 21.5756 9.38806 20.8605 9.38806H18.5001ZM25.3031 12.8171C24.8808 13.0825 24.6001 13.5525 24.6001 14.0881V18.0881C24.6001 18.578 24.835 19.0131 25.1984 19.2868C25.0837 18.7972 25.3 18.26 25.7827 18.0059C25.8786 17.9554 25.8908 17.823 25.8057 17.7558L25.7128 17.6825C25.0907 17.1913 25.0907 16.248 25.7128 15.7568L25.9554 15.5653C25.9614 15.5606 25.9628 15.5574 25.9635 15.5558C25.9646 15.5531 25.9656 15.5485 25.9651 15.5427C25.9648 15.5394 25.9641 15.5366 25.9632 15.5343C25.9626 15.5326 25.9618 15.5311 25.9611 15.5301C25.9602 15.5286 25.9582 15.5257 25.9514 15.5222C25.2206 15.1376 25.2206 14.0912 25.9514 13.7066L26.0109 13.6753C26.0468 13.6564 26.0548 13.6083 26.0268 13.5789L25.3031 12.8171ZM26.5429 19.5216C27.1552 19.3327 27.6001 18.7624 27.6001 18.0881V14.0881C27.6001 13.4061 27.145 12.8304 26.5219 12.6482L26.7518 12.8901C27.2365 13.4004 27.0994 14.2324 26.4767 14.5602L26.4171 14.5915C26.4143 14.593 26.4124 14.5943 26.411 14.5953C26.4098 14.5962 26.4091 14.5968 26.4087 14.5972C26.4078 14.5981 26.4071 14.5989 26.4066 14.5999C26.4053 14.6022 26.4033 14.6072 26.4033 14.6144C26.4033 14.6216 26.4053 14.6265 26.4066 14.6288C26.4071 14.6298 26.4078 14.6306 26.4087 14.6316C26.4096 14.6324 26.412 14.6345 26.4171 14.6372C27.074 14.983 27.1576 15.8903 26.575 16.3502L26.3325 16.5417C26.2175 16.6325 26.2175 16.8068 26.3325 16.8976L26.4254 16.9709C27.0784 17.4865 26.9846 18.5034 26.2484 18.8908C26.1637 18.9354 26.142 19.0469 26.2038 19.12L26.5429 19.5216ZM10.9735 13.5789L11.6972 12.8171C12.1195 13.0825 12.4001 13.5525 12.4001 14.0881V18.0881C12.4001 18.578 12.1653 19.0131 11.8019 19.2868C11.9166 18.7972 11.7003 18.26 11.2176 18.0059C11.1217 17.9554 11.1095 17.823 11.1946 17.7558L11.2875 17.6825C11.9096 17.1913 11.9096 16.248 11.2875 15.7568L11.0449 15.5653C11.0389 15.5606 11.0375 15.5574 11.0368 15.5558C11.0357 15.5531 11.0347 15.5485 11.0352 15.5427C11.0357 15.5368 11.0376 15.5325 11.0392 15.5301C11.0401 15.5286 11.0421 15.5257 11.0489 15.5222C11.7796 15.1376 11.7796 14.0912 11.0489 13.7066L10.9894 13.6753C10.9534 13.6564 10.9455 13.6083 10.9735 13.5789ZM9.40015 18.0881C9.40015 18.7624 9.84508 19.3327 10.4574 19.5216L10.7965 19.12C10.8583 19.0469 10.8365 18.9354 10.7519 18.8908C10.0157 18.5034 9.92194 17.4865 10.5749 16.9709L10.6678 16.8976C10.7828 16.8068 10.7828 16.6325 10.6678 16.5417L10.4253 16.3502C9.84268 15.8903 9.9263 14.983 10.5831 14.6372C10.5883 14.6345 10.5907 14.6324 10.5916 14.6316C10.5925 14.6306 10.5932 14.6298 10.5937 14.6288C10.595 14.6265 10.597 14.6216 10.597 14.6144C10.597 14.6072 10.595 14.6022 10.5937 14.5999L10.593 14.5989L10.5916 14.5972C10.5907 14.5963 10.5883 14.5942 10.5831 14.5915L10.5236 14.5602C9.90089 14.2324 9.76381 13.4004 10.2485 12.8901L10.4784 12.6482C9.85529 12.8304 9.40015 13.4061 9.40015 14.0881V18.0881Z" fill="white"/>
</g>
<g clip-path="url(#clip2)">
<rect width="7" height="16" rx="3.5" transform="matrix(4.37114e-08 1 1 -4.37114e-08 0.5 25)" fill="#3BACD9"/>
<rect x="36.5" y="25" width="7" height="18" rx="3.5" transform="rotate(90 36.5 25)" fill="#C7CFD6" fill-opacity="0.18"/>
</g>
</g>
<defs>
<clipPath id="clip0">
<rect width="36" height="32.0234" fill="white" transform="translate(0.5 0.488281)"/>
</clipPath>
<clipPath id="clip1">
<rect width="20" height="20" fill="white" transform="translate(8.5 0.488281)"/>
</clipPath>
<clipPath id="clip2">
<rect width="8.02339" height="36" fill="white" transform="matrix(4.37114e-08 1 1 -4.37114e-08 0.5 24.4883)"/>
</clipPath>
</defs>
</svg>
