<svg width="37" height="33" viewBox="0 0 37 33" fill="none" xmlns="http://www.w3.org/2000/svg">
<g clip-path="url(#clip0)">
<g clip-path="url(#clip1)">
<path fill-rule="evenodd" clip-rule="evenodd" d="M9.63037 6.22066C9.63037 4.03736 11.4003 2.26746 13.5836 2.26746H18.8815C21.0648 2.26746 22.8347 4.03736 22.8347 6.22066C22.8347 8.40395 21.0648 10.1739 18.8815 10.1739H17.2204C16.8056 10.1739 16.4094 10.3456 16.1258 10.6483L14.9404 11.9136C14.6681 12.2043 14.1805 12.0115 14.1805 11.6132V10.7708C14.1805 10.4411 13.9132 10.1739 13.5836 10.1739C11.4003 10.1739 9.63037 8.40395 9.63037 6.22066ZM13.5836 1.26746C10.848 1.26746 8.63037 3.48508 8.63037 6.22066C8.63037 8.82053 10.6334 10.9526 13.1805 11.1577V11.6132C13.1805 11.801 13.2136 11.9748 13.2729 12.132C13.2053 12.2173 13.165 12.3251 13.165 12.4423C13.165 15.1634 15.3088 17.3955 17.985 17.3955H19.9312C19.9701 17.3955 20.0108 17.4116 20.0428 17.4458L21.8154 19.3378C22.5617 20.1345 23.8192 19.5559 23.8192 18.5216V17.3878C26.3682 17.2438 28.3693 15.0713 28.3693 12.4423C28.3693 9.76226 26.2899 7.5567 23.6704 7.49058C23.7776 7.08529 23.8347 6.65964 23.8347 6.22066C23.8347 3.48508 21.6171 1.26746 18.8815 1.26746H13.5836ZM23.3153 8.43105C22.5031 10.0571 20.8227 11.1739 18.8815 11.1739H17.2204C17.0822 11.1739 16.9501 11.2311 16.8555 11.332L15.6702 12.5972C15.2558 13.0396 14.6893 13.1403 14.2013 12.9905C14.4599 14.9248 16.067 16.3955 17.985 16.3955H19.9312C20.2516 16.3955 20.5549 16.5298 20.7726 16.7621L22.5451 18.6541C22.5767 18.6879 22.6051 18.6993 22.627 18.7035C22.6519 18.7083 22.6819 18.706 22.7127 18.6932C22.7716 18.6686 22.8192 18.6138 22.8192 18.5216V17.1327C22.8192 16.7399 23.1318 16.3955 23.5493 16.3955C25.6448 16.3955 27.3693 14.64 27.3693 12.4423C27.3693 10.2445 25.6448 8.48905 23.5493 8.48905C23.4648 8.48905 23.3851 8.46808 23.3153 8.43105ZM21.6531 4.90765C21.8484 5.10292 21.8484 5.4195 21.6531 5.61476L20.1751 7.09278C19.5893 7.67857 18.6396 7.67857 18.0538 7.09278L17.2829 6.32187C17.0876 6.1266 16.771 6.1266 16.5758 6.32187L15.8049 7.09278C15.2191 7.67857 14.2693 7.67857 13.6836 7.09278L12.9126 6.32187C12.7174 6.1266 12.4008 6.1266 12.2055 6.32187L11.0962 7.43117C10.901 7.62643 10.5844 7.62643 10.3891 7.43117C10.1939 7.2359 10.1939 6.91932 10.3891 6.72406L11.4984 5.61476C12.0842 5.02897 13.034 5.02897 13.6197 5.61476L14.3907 6.38567C14.5859 6.58094 14.9025 6.58094 15.0978 6.38567L15.8687 5.61476C16.4545 5.02897 17.4042 5.02897 17.99 5.61476L18.7609 6.38567C18.9562 6.58094 19.2728 6.58094 19.468 6.38567L20.946 4.90765C21.1413 4.71239 21.4579 4.71239 21.6531 4.90765ZM22.919 13.2398C23.1143 13.4351 23.4309 13.4351 23.6262 13.2398L25.1042 11.7618C25.2994 11.5665 25.616 11.5665 25.8113 11.7618C26.0065 11.9571 26.0065 12.2736 25.8113 12.4689L24.3333 13.9469C23.7475 14.5327 22.7977 14.5327 22.2119 13.9469L21.441 13.176C21.2458 12.9807 20.9292 12.9807 20.7339 13.176L19.963 13.9469C19.3772 14.5327 18.4275 14.5327 17.8417 13.9469L16.7324 12.8376C16.5371 12.6424 16.5371 12.3258 16.7324 12.1305C16.9276 11.9353 17.2442 11.9353 17.4395 12.1305L18.5488 13.2398C18.7441 13.4351 19.0606 13.4351 19.2559 13.2398L20.0268 12.4689C20.6126 11.8831 21.5623 11.8831 22.1481 12.4689L22.919 13.2398Z" fill="white"/>
</g>
<g clip-path="url(#clip2)">
<rect width="7" height="13" rx="3.5" transform="matrix(4.37114e-08 1 1 -4.37114e-08 0.5 25)" fill="#CA50D9"/>
<rect x="36.5" y="25" width="7" height="21" rx="3.5" transform="rotate(90 36.5 25)" fill="#C7CFD6" fill-opacity="0.18"/>
</g>
</g>
<defs>
<clipPath id="clip0">
<rect width="36" height="32.0234" fill="white" transform="translate(0.5 0.488281)"/>
</clipPath>
<clipPath id="clip1">
<rect width="20" height="20" fill="white" transform="translate(8.5 0.488281)"/>
</clipPath>
<clipPath id="clip2">
<rect width="8.02339" height="36" fill="white" transform="matrix(4.37114e-08 1 1 -4.37114e-08 0.5 24.4883)"/>
</clipPath>
</defs>
</svg>
