<svg width="37" height="33" viewBox="0 0 37 33" fill="none" xmlns="http://www.w3.org/2000/svg">
<g clip-path="url(#clip0)">
<g clip-path="url(#clip1)">
<path fill-rule="evenodd" clip-rule="evenodd" d="M13.3642 10.3325C12.5316 10.3325 11.8567 11.0075 11.8567 11.8401C11.8567 12.6727 12.5316 13.3476 13.3642 13.3476C14.1968 13.3476 14.8718 12.6727 14.8718 11.8401C14.8718 11.0075 14.1968 10.3325 13.3642 10.3325ZM12.809 11.8401C12.809 11.5335 13.0576 11.2849 13.3642 11.2849C13.6708 11.2849 13.9194 11.5335 13.9194 11.8401C13.9194 12.1467 13.6708 12.3953 13.3642 12.3953C13.0576 12.3953 12.809 12.1467 12.809 11.8401Z" fill="#E5E5E5"/>
<path fill-rule="evenodd" clip-rule="evenodd" d="M17.0135 11.8401C17.0135 11.0075 17.6884 10.3326 18.521 10.3326C19.3536 10.3326 20.0286 11.0075 20.0286 11.8401C20.0286 12.6727 19.3536 13.3477 18.521 13.3477C17.6884 13.3477 17.0135 12.6727 17.0135 11.8401ZM18.521 11.2849C18.2144 11.2849 17.9659 11.5335 17.9659 11.8401C17.9659 12.1467 18.2144 12.3953 18.521 12.3953C18.8276 12.3953 19.0762 12.1467 19.0762 11.8401C19.0762 11.5335 18.8276 11.2849 18.521 11.2849Z" fill="#E5E5E5"/>
<path fill-rule="evenodd" clip-rule="evenodd" d="M21.5477 1.34539C21.5477 1.0824 21.3345 0.869202 21.0715 0.869202C20.8085 0.869202 20.5953 1.0824 20.5953 1.34539V2.20254C20.5953 2.57072 20.2968 2.8692 19.9286 2.8692L19.0715 2.8692C17.9259 2.8692 16.9857 3.74862 16.8892 4.8692H14.5953C12.2283 4.8692 10.3096 6.78798 10.3096 9.15491V11.2502C10.3096 13.6171 12.2284 15.5359 14.5953 15.5359H16.1557C16.0786 15.6217 16.0085 15.7115 15.9465 15.8046C15.7085 16.1617 15.5717 16.5933 15.6407 17.0407C15.7111 17.4969 15.9844 17.8983 16.4306 18.2027C16.6568 18.357 16.8988 18.4854 17.1535 18.5838C17.1351 18.6075 17.1177 18.6317 17.1013 18.6563C16.971 18.8518 16.8855 19.1043 16.9278 19.3783C16.9713 19.661 17.1399 19.8944 17.3817 20.0593C17.6636 20.2517 17.9986 20.3665 18.3603 20.3665C18.722 20.3665 19.0569 20.2517 19.3389 20.0593C19.5807 19.8944 19.7492 19.661 19.7928 19.3783C19.835 19.1043 19.7496 18.8518 19.6193 18.6563C19.6024 18.631 19.5845 18.6062 19.5657 18.582C19.8186 18.4839 20.059 18.356 20.2838 18.2027C20.73 17.8983 21.0033 17.4969 21.0737 17.0407C21.1427 16.5933 21.006 16.1617 20.7679 15.8046C20.7059 15.7115 20.6358 15.6217 20.5587 15.5359H22.1191C24.486 15.5359 26.4048 13.6171 26.4048 11.2502V9.15492C26.4048 6.78798 24.486 4.8692 22.1191 4.8692H17.8479C17.9396 4.27585 18.4525 3.82158 19.0715 3.82158H19.9286C20.8228 3.82158 21.5477 3.09671 21.5477 2.20254V1.34539ZM14.5953 5.82158C12.7543 5.82158 11.262 7.31396 11.262 9.15491V11.2502C11.262 13.0911 12.7543 14.5835 14.5953 14.5835H22.1191C23.96 14.5835 25.4524 13.0911 25.4524 11.2502V9.15492C25.4524 7.31397 23.96 5.82158 22.1191 5.82158H14.5953ZM16.582 16.8956C16.6052 17.0463 16.6985 17.2325 16.9673 17.4159C17.383 17.6995 17.8568 17.8569 18.3572 17.8569C18.8576 17.8569 19.3314 17.6995 19.7471 17.4159C20.0159 17.2325 20.1092 17.0463 20.1324 16.8956C20.157 16.736 20.1144 16.5412 19.9755 16.3329C19.6912 15.9064 19.0714 15.536 18.3572 15.536C17.643 15.536 17.0232 15.9064 16.7389 16.3329C16.6 16.5412 16.5574 16.736 16.582 16.8956ZM17.9184 19.2726C17.8905 19.2535 17.8768 19.2393 17.8706 19.2312C17.8727 19.223 17.8784 19.2076 17.8937 19.1846C17.9625 19.0814 18.1409 18.9646 18.3603 18.9646C18.5797 18.9646 18.758 19.0814 18.8269 19.1846C18.8421 19.2076 18.8479 19.223 18.85 19.2312C18.8437 19.2393 18.8301 19.2535 18.8022 19.2726C18.6657 19.3657 18.5156 19.4141 18.3603 19.4141C18.2049 19.4141 18.0549 19.3657 17.9184 19.2726ZM18.8529 19.2269C18.8544 19.2246 18.8547 19.2234 18.8546 19.2233C18.8545 19.2233 18.8542 19.2237 18.8538 19.2247C18.8535 19.2252 18.8532 19.226 18.8529 19.2269Z" fill="#E5E5E5"/>
</g>
<g clip-path="url(#clip2)">
<rect x="36.5" y="25" width="7" height="22" rx="3.5" transform="rotate(90 36.5 25)" fill="#C7CFD6" fill-opacity="0.18"/>
<rect width="7" height="12" rx="3.5" transform="matrix(-4.37114e-08 1 1 4.37114e-08 0.5 25)" fill="#9379FF"/>
</g>
</g>
<defs>
<clipPath id="clip0">
<rect width="36" height="32.0234" fill="white" transform="translate(0.5 0.488281)"/>
</clipPath>
<clipPath id="clip1">
<rect width="20" height="20" fill="white" transform="translate(8.5 0.488281)"/>
</clipPath>
<clipPath id="clip2">
<rect width="8.02339" height="36" fill="white" transform="translate(36.5 24.4883) rotate(90)"/>
</clipPath>
</defs>
</svg>
