<svg width="26" height="26" viewBox="0 0 26 26" fill="none" xmlns="http://www.w3.org/2000/svg">
<g clip-path="url(#clip0)">
<path fill-rule="evenodd" clip-rule="evenodd" d="M12.9999 2.00293C8.15349 2.00293 4.22473 5.93168 4.22473 10.778C4.22473 15.0763 7.315 18.6527 11.3949 19.4067C11.4963 19.0099 11.6268 18.6534 11.784 18.3577C12.0249 17.9046 12.4259 17.4229 13.0186 17.4229C13.6112 17.4229 14.0123 17.9046 14.2532 18.3577C14.4095 18.6517 14.5394 19.0059 14.6405 19.4001C18.7027 18.6318 21.775 15.0637 21.775 10.778C21.775 5.93168 17.8462 2.00293 12.9999 2.00293ZM14.4875 20.7816L14.8706 20.7107L14.8685 20.696C15.0267 20.6561 15.183 20.6112 15.3371 20.5614C15.1405 20.8992 14.8369 21.1671 14.4727 21.3186C14.4132 21.3433 14.3521 21.3649 14.2896 21.3832L14.26 21.3913C14.1089 21.4327 13.9494 21.455 13.7838 21.455H12.2533C12.0878 21.455 11.9282 21.4327 11.7771 21.3913L11.7438 21.3821C11.4 21.2807 11.0987 21.0789 10.8738 20.8096L10.8624 20.7959C10.8022 20.7224 10.7478 20.644 10.6998 20.5614C10.854 20.6112 11.0103 20.6562 11.1687 20.6961L11.1666 20.7107L11.5447 20.7807C12.0215 20.8752 12.5143 20.9248 13.0184 20.9248C13.5209 20.9248 14.0122 20.8755 14.4875 20.7816ZM11.3103 23.4113L9.63525 25.0863C9.10939 25.6122 8.25681 25.6122 7.73095 25.0863C7.2051 24.5605 7.2051 23.7079 7.73095 23.1821L9.84023 21.0728C9.63437 20.722 9.50281 20.3223 9.46715 19.8953C5.8145 18.479 3.22473 14.931 3.22473 10.778C3.22473 5.3794 7.6012 1.00293 12.9999 1.00293C18.3985 1.00293 22.775 5.3794 22.775 10.778C22.775 14.9164 20.2033 18.4542 16.5709 19.8803C16.5395 20.2824 16.4231 20.6605 16.2396 20.9968L18.4243 23.1815C18.9501 23.7074 18.9501 24.56 18.4243 25.0858C17.8984 25.6117 17.0459 25.6117 16.52 25.0858L14.746 23.3118C14.6663 23.742 14.5567 24.1342 14.4215 24.4703C14.2852 24.8091 14.1128 25.1163 13.8975 25.347C13.6815 25.5784 13.3852 25.7694 13.0186 25.7694C12.652 25.7694 12.3556 25.5784 12.1397 25.347C11.9244 25.1163 11.752 24.8091 11.6157 24.4703C11.491 24.1603 11.388 23.8026 11.3103 23.4113ZM12.1888 22.5327C12.2539 23.1554 12.3812 23.6938 12.5434 24.097C12.6531 24.3698 12.7688 24.5555 12.8708 24.6648C12.9204 24.7179 12.9592 24.7449 12.9841 24.7578C13.0064 24.7695 13.0166 24.7694 13.0185 24.7694H13.0186H13.0187C13.0206 24.7694 13.0307 24.7695 13.0531 24.7578C13.0779 24.7449 13.1168 24.7179 13.1664 24.6648C13.2683 24.5555 13.384 24.3698 13.4937 24.097C13.6627 23.6771 13.7938 23.1104 13.8561 22.4546C13.832 22.4552 13.8079 22.4555 13.7837 22.4555H12.2661L12.1888 22.5327ZM13.6401 19.5302C13.5615 19.2507 13.4694 19.0137 13.3702 18.8271C13.2762 18.6503 13.1869 18.5398 13.1158 18.4786C13.0816 18.4492 13.0563 18.4352 13.0412 18.4288C13.0273 18.423 13.0207 18.4229 13.0186 18.4229C13.0165 18.4229 13.0099 18.423 12.996 18.4288C12.9809 18.4352 12.9556 18.4492 12.9214 18.4786C12.8502 18.5398 12.761 18.6503 12.667 18.8271C12.5675 19.0143 12.4751 19.2522 12.3964 19.5327C12.5958 19.5463 12.797 19.5532 12.9999 19.5532C13.2152 19.5532 13.4287 19.5454 13.6401 19.5302ZM11.1 22.2074C10.8816 22.1084 10.6783 21.9822 10.4942 21.833L8.43806 23.8892C8.30273 24.0245 8.30273 24.2439 8.43806 24.3792C8.57339 24.5146 8.79281 24.5146 8.92814 24.3792L11.1 22.2074ZM15.0176 22.1692L17.2271 24.3787C17.3624 24.5141 17.5819 24.5141 17.7172 24.3787C17.8525 24.2434 17.8525 24.024 17.7172 23.8886L15.6075 21.779C15.527 21.8483 15.4425 21.9131 15.3544 21.973C15.2472 22.0459 15.1347 22.1115 15.0176 22.1692ZM12.9998 7.2456C11.0488 7.2456 9.46718 8.82723 9.46718 10.7783C9.46718 12.7293 11.0488 14.3109 12.9998 14.3109C14.9509 14.3109 16.5325 12.7293 16.5325 10.7783C16.5325 8.82723 14.9509 7.2456 12.9998 7.2456ZM8.46718 10.7783C8.46718 8.27494 10.4965 6.2456 12.9998 6.2456C15.5032 6.2456 17.5325 8.27494 17.5325 10.7783C17.5325 13.2816 15.5032 15.3109 12.9998 15.3109C10.4965 15.3109 8.46718 13.2816 8.46718 10.7783ZM12.6933 10.7778C12.6933 10.6085 12.8305 10.4712 12.9998 10.4712C13.1691 10.4712 13.3063 10.6085 13.3063 10.7778C13.3063 10.9471 13.1691 11.0843 12.9998 11.0843C12.8305 11.0843 12.6933 10.9471 12.6933 10.7778ZM12.9998 9.47123C12.2782 9.47123 11.6933 10.0562 11.6933 10.7778C11.6933 11.4993 12.2782 12.0843 12.9998 12.0843C13.7214 12.0843 14.3063 11.4993 14.3063 10.7778C14.3063 10.0562 13.7214 9.47123 12.9998 9.47123Z" fill="white"/>
<path d="M15.8225 1.94029H16.3225V1.57501L15.9745 1.46395L15.8225 1.94029ZM10.1768 1.94034L10.0247 1.46401L9.67676 1.57507V1.94034H10.1768ZM15.3225 1.94029V2.72935H16.3225V1.94029H15.3225ZM15.3225 2.72935C15.3225 3.55778 14.6509 4.22935 13.8225 4.22935V5.22935C15.2032 5.22935 16.3225 4.11006 16.3225 2.72935H15.3225ZM13.8225 4.22935H12.1768V5.22935H13.8225V4.22935ZM12.1768 4.22935C11.3483 4.22935 10.6768 3.55778 10.6768 2.72935H9.67676C9.67676 4.11006 10.796 5.22935 12.1768 5.22935V4.22935ZM10.6768 2.72935V1.94034H9.67676V2.72935H10.6768ZM10.3288 2.41667C11.1703 2.14809 12.0676 2.00293 12.9997 2.00293V1.00293C11.9632 1.00293 10.9634 1.16443 10.0247 1.46401L10.3288 2.41667ZM12.9997 2.00293C13.9318 2.00293 14.829 2.14807 15.6705 2.41662L15.9745 1.46395C15.0359 1.16441 14.0362 1.00293 12.9997 1.00293V2.00293Z" fill="white"/>
</g>
<defs>
<clipPath id="clip0">
<rect width="25" height="25" fill="white" transform="translate(0.5 0.885742)"/>
</clipPath>
</defs>
</svg>
