<svg width="37" height="33" viewBox="0 0 37 33" fill="none" xmlns="http://www.w3.org/2000/svg">
<g clip-path="url(#clip0)">
<g clip-path="url(#clip1)">
<path fill-rule="evenodd" clip-rule="evenodd" d="M18.4999 1.48193C14.6781 1.48193 11.5798 4.58017 11.5798 8.40203C11.5798 11.7596 13.971 14.5587 17.1433 15.1892C17.2224 14.9015 17.3213 14.6404 17.4391 14.4188C17.6351 14.05 17.9814 13.6179 18.515 13.6179C19.0486 13.6179 19.3949 14.05 19.5909 14.4188C19.708 14.6389 19.8063 14.898 19.8851 15.1835C23.0432 14.5418 25.42 11.7495 25.42 8.40203C25.42 4.58017 22.3218 1.48193 18.4999 1.48193ZM17.3075 16.5005C17.698 16.5785 18.1017 16.6194 18.5148 16.6194C18.9258 16.6194 19.3276 16.5789 19.7163 16.5017L20.0923 16.432C19.9962 16.5323 19.8846 16.6177 19.7613 16.6843C19.6802 16.7281 19.594 16.7637 19.504 16.7901L19.4817 16.7962C19.3694 16.827 19.2506 16.8436 19.1272 16.8436H17.9028C17.7794 16.8436 17.6606 16.827 17.5483 16.7962L17.5193 16.7882C17.2953 16.7214 17.0957 16.5971 16.9374 16.432L17.3075 16.5005ZM16.9236 16.4108C16.9209 16.4101 16.9183 16.4094 16.9156 16.4087C16.918 16.4113 16.9204 16.4139 16.9228 16.4165L16.9236 16.4108ZM17.0892 18.7093L15.8789 19.9195C15.4192 20.3792 14.6738 20.3792 14.2141 19.9195C13.7544 19.4597 13.7544 18.7143 14.2141 18.2546L15.8478 16.6209C15.7071 16.3618 15.614 16.0731 15.5801 15.7666C12.651 14.6043 10.5798 11.745 10.5798 8.40203C10.5798 4.02788 14.1258 0.481934 18.4999 0.481934C22.8741 0.481934 26.42 4.02788 26.42 8.40203C26.42 11.7332 24.3635 14.5841 21.4507 15.7542C21.4206 16.0409 21.3387 16.3121 21.2145 16.5584L22.9102 18.2541C23.3699 18.7138 23.3699 19.4592 22.9102 19.9189C22.4505 20.3787 21.7051 20.3787 21.2453 19.9189L19.9582 18.6318C19.8978 18.9102 19.8212 19.1667 19.7301 19.3931C19.6184 19.6708 19.4748 19.9287 19.2912 20.1254C19.107 20.3228 18.8453 20.4951 18.515 20.4951C18.1847 20.4951 17.923 20.3228 17.7388 20.1254C17.5552 19.9287 17.4116 19.6708 17.2999 19.3931C17.2173 19.1878 17.1466 18.9578 17.0892 18.7093ZM17.956 17.8441C18.0087 18.314 18.1062 18.7179 18.2276 19.0199C18.3128 19.2315 18.3996 19.3679 18.4699 19.4432C18.489 19.4637 18.5041 19.4768 18.515 19.4851C18.5259 19.4768 18.541 19.4637 18.5601 19.4432C18.6304 19.3679 18.7172 19.2315 18.8024 19.0199C18.9238 18.7179 19.0214 18.314 19.0741 17.8441H17.956ZM20.1072 16.4163L20.1064 16.4107C20.109 16.41 20.1116 16.4093 20.1142 16.4086C20.1119 16.4112 20.1095 16.4137 20.1072 16.4163ZM18.8804 15.3118C18.8278 15.1458 18.7693 15.0036 18.708 14.8882C18.6159 14.7151 18.5467 14.6513 18.515 14.6286C18.4833 14.6513 18.4141 14.7151 18.322 14.8882C18.2605 15.0039 18.2018 15.1467 18.1491 15.3134C18.2653 15.3192 18.3823 15.3221 18.4999 15.3221C18.6276 15.3221 18.7545 15.3187 18.8804 15.3118ZM16.8104 17.5738C16.7029 17.5168 16.6004 17.4517 16.5036 17.3793L14.9212 18.9617C14.852 19.0309 14.852 19.1431 14.9212 19.2124C14.9904 19.2816 15.1026 19.2816 15.1718 19.2124L16.8104 17.5738ZM20.2806 17.54L21.9524 19.2118C22.0217 19.2811 22.1339 19.2811 22.2031 19.2118C22.2723 19.1426 22.2723 19.0304 22.2031 18.9612L20.5797 17.3378L20.5774 17.3396C20.484 17.4136 20.3848 17.4807 20.2806 17.54ZM18.4999 5.67617C16.9943 5.67617 15.7738 6.8967 15.7738 8.4023C15.7738 9.9079 16.9943 11.1284 18.4999 11.1284C20.0055 11.1284 21.226 9.9079 21.226 8.4023C21.226 6.8967 20.0055 5.67617 18.4999 5.67617ZM14.7738 8.4023C14.7738 6.34441 16.442 4.67617 18.4999 4.67617C20.5578 4.67617 22.226 6.34441 22.226 8.4023C22.226 10.4602 20.5578 12.1284 18.4999 12.1284C16.442 12.1284 14.7738 10.4602 14.7738 8.4023ZM18.3547 8.40171C18.3547 8.32151 18.4197 8.25649 18.4999 8.25649C18.5801 8.25649 18.6451 8.32151 18.6451 8.40171C18.6451 8.48192 18.5801 8.54694 18.4999 8.54694C18.4197 8.54694 18.3547 8.48192 18.3547 8.40171ZM18.4999 7.25649C17.8674 7.25649 17.3547 7.76922 17.3547 8.40171C17.3547 9.0342 17.8674 9.54694 18.4999 9.54694C19.1324 9.54694 19.6451 9.0342 19.6451 8.40171C19.6451 7.76922 19.1324 7.25649 18.4999 7.25649ZM18.4933 19.4984C18.4933 19.4983 18.4943 19.4978 18.4961 19.4973C18.4943 19.4982 18.4933 19.4984 18.4933 19.4984ZM18.5339 19.4973C18.5358 19.4978 18.5367 19.4983 18.5367 19.4984C18.5367 19.4984 18.5357 19.4982 18.5339 19.4973Z" fill="white"/>
<path d="M20.758 1.33182H21.258V0.966542L20.91 0.855488L20.758 1.33182ZM16.2415 1.33186L16.0894 0.855533L15.7415 0.96659V1.33186H16.2415ZM20.258 1.33182V1.56306H21.258V1.33182H20.258ZM20.258 1.56306C20.258 2.39149 19.5865 3.06306 18.758 3.06306V4.06306C20.1387 4.06306 21.258 2.94377 21.258 1.56306H20.258ZM18.758 3.06306H18.2415V4.06306H18.758V3.06306ZM18.2415 3.06306C17.413 3.06306 16.7415 2.39149 16.7415 1.56306H15.7415C15.7415 2.94377 16.8607 4.06306 18.2415 4.06306V3.06306ZM16.7415 1.56306V1.33186H15.7415V1.56306H16.7415ZM16.3935 1.80819C17.057 1.59643 17.7646 1.48193 18.4998 1.48193V0.481934C17.6602 0.481934 16.8501 0.61277 16.0894 0.855533L16.3935 1.80819ZM18.4998 1.48193C19.235 1.48193 19.9425 1.59641 20.606 1.80815L20.91 0.855488C20.1494 0.612754 19.3394 0.481934 18.4998 0.481934V1.48193Z" fill="white"/>
</g>
<g clip-path="url(#clip2)">
<rect x="0.5" y="0.5" width="6" height="21" rx="3" transform="matrix(4.37114e-08 1 1 -4.37114e-08 0.5 25)" fill="#82D930" stroke="white"/>
<rect x="36.5" y="25" width="7" height="12" rx="3.5" transform="rotate(90 36.5 25)" fill="white"/>
</g>
</g>
<defs>
<clipPath id="clip0">
<rect width="36" height="32.0234" fill="white" transform="translate(0.5 0.488281)"/>
</clipPath>
<clipPath id="clip1">
<rect width="20" height="20" fill="white" transform="translate(8.5 0.488281)"/>
</clipPath>
<clipPath id="clip2">
<rect width="8.02339" height="36" fill="white" transform="matrix(4.37114e-08 1 1 -4.37114e-08 0.5 24.4883)"/>
</clipPath>
</defs>
</svg>
